<?xml version="1.0" encoding="utf-8"?>
<!-- Generator: Adobe Illustrator 22.1.0, SVG Export Plug-In . SVG Version: 6.00 Build 0)  -->
<svg version="1.1" id="Layer_1" xmlns="http://www.w3.org/2000/svg" xmlns:xlink="http://www.w3.org/1999/xlink" x="0px" y="0px"
	 viewBox="0 0 1366 768" style="enable-background:new 0 0 1366 768;" xml:space="preserve">
<style type="text/css">
	.st0{fill:none;stroke:#000000;stroke-miterlimit:10;}
</style>
<path class="st0" d="M729.3,394.7c0.1,0.1,0.2,0.2,0.2,0.3c0.7,0,1.5-0.3,2.2-0.4c0.9-0.1,1.8-0.2,2.8-0.2V388
	c-2.5,0.2-5.3-0.1-8-0.8c0,0.2,0,0.3,0.1,0.5c0.8,1.1,1.2,2.7,0.9,4.3C727.9,392.9,728.4,393.9,729.3,394.7z"/>
<path class="st0" d="M715.1,408.9c-2.1-1-2.8-2.8-2.5-4.6c-3.4-3.2-5.7-7.6-5.6-12.3c0,0-0.1,0-0.1-0.1c-2.9-2.4-4.1-5.6-3.5-8.8
	c-2.7,0.1-5.3-0.2-8-1c-2.1-0.6-3.3-2.3-3.5-4.1c-0.5-0.3-1-0.5-1.5-0.8c-1.4-0.9-2.1-2.1-2.3-3.5c-3.9,0.2-7.8-1.6-10.7-4.9
	c-1.9-2.1-1.9-5,0-7.1c0.5-0.6,1.1-1.1,1.7-1.6c-0.7-0.7-1.4-1.4-2.3-2.1c-1.2-1-1.9-3.4-1.3-4.9c3.3-8.1,10-8.1,16.8-5.5
	c0.6-0.2,1.2-0.4,1.8-0.5c1.7-0.3,3.4,0.1,4.6,1.1c1.3-1.9,3.7-3,6.2-1.2c3.2,2.3,6.4,1.6,10.1,0.8c4.5-1,7.5,3.4,5.6,7.3
	c-0.8,1.6-1.7,3-2.7,4.2c0.2,0.3,0.3,0.7,0.4,1.1c0.2,0,0.4,0,0.6,0.1c4.5,0.9,7.7,3.8,10.7,7.1c1.6,1.8,3.1,3.7,4.9,5v-58.1h-225
	v225h225V412.9C728.2,414.2,719.9,411.2,715.1,408.9z"/>
<g>
	<g>
		<path d="M612.3,391.7c13.6-19.7,38.2-25.8,60.1-31.3c1.9-0.5,1.1-3.4-0.8-2.9c-22.8,5.7-47.8,12.3-61.9,32.7
			C608.6,391.8,611.2,393.3,612.3,391.7L612.3,391.7z"/>
	</g>
</g>
<g>
	<g>
		<path d="M609.9,388.6c-7.1,12.7-11.9,30.7-2.1,43.3c9.4,12.1,25.8,14.5,40.1,14c17.6-0.6,39.1-5.1,53.9,7.5
			c11.9,10.2,15.5,29.3,32.6,33.2c1.9,0.4,2.7-2.5,0.8-2.9c-16.2-3.7-19.9-22.6-31.2-32.4c-10.6-9.2-25.5-10.2-38.9-9.5
			c-16.2,0.8-34.2,3.9-48.4-5.8c-15.9-10.9-12.4-31.2-4.1-45.9C613.5,388.5,610.9,386.9,609.9,388.6L609.9,388.6z"/>
	</g>
</g>
<g>
	<g>
		<path d="M678.8,358.2c-1.7-0.3-3.3-0.8-4.7-1.7c-1.7-1-3.2,1.6-1.5,2.6s3.5,1.7,5.5,2c0.8,0.1,1.6-0.2,1.8-1
			C680,359.3,679.6,358.3,678.8,358.2L678.8,358.2z"/>
	</g>
</g>
<g>
	<g>
		<path d="M660.7,378.4c-4.2-0.1-8,3.4-7.8,7.7c0.2,4.2,4.5,7.5,8.5,7s7.2-4.4,7-8.4c-0.2-4.5-4.1-7.7-8.4-8c-1.9-0.2-1.9,2.8,0,3
			c5.5,0.4,7.7,8.7,1.7,10.3c-2.4,0.7-5.3-1.1-5.8-3.6c-0.5-2.8,2.1-5.1,4.7-5C662.6,381.5,662.6,378.5,660.7,378.4L660.7,378.4z"/>
	</g>
</g>
<line class="st0" x1="734.5" y1="364.5" x2="734.5" y2="412.5"/>
<g>
	<g>
		<path d="M607.5,428.6c8.1,0.4,16.3,1.1,24.4,2c1.9,0.2,3.9,0.4,5.8,0.7c2.1,0.3,5.7-0.1,7.4,1c2,1.3,1.9,3.2,2.1,5.6
			c0.1,2.2,0.3,4.4,0.4,6.6c0.1,1.9,3.1,1.9,3,0c-0.2-3.7,0.5-9.4-1-12.9c-1.3-2.9-5.3-2.5-8-2.8c-11.3-1.5-22.7-2.5-34.1-3.1
			C605.6,425.5,605.6,428.5,607.5,428.6L607.5,428.6z"/>
	</g>
</g>
<g>
	<g>
		<path d="M606.2,430.8c1.9,0,1.9-3,0-3S604.3,430.8,606.2,430.8L606.2,430.8z"/>
	</g>
</g>
<g>
	<g>
		<path d="M608.3,428.3c-14.7,4.8-29.9,6.8-45.4,6c0.1,1,0.3,2,0.4,2.9c7-1.7,8.7,7.3,6.2,11.9c-2.1,3.8-6,6.5-9.6,8.7
			c-7.3,4.7-15.2,8.3-23.5,10.9c-1.5,0.5-1.4,3.1,0.4,2.9c5.6-0.4,16.2-0.3,15.1,8.2c-0.6,4.8-7.9,7.7-11.6,9.6
			c-9.5,4.8-18.9,9.6-28.4,14.4c-1.6,0.8-0.5,3.1,1.2,2.7c8.4-2,16.8-4,25.2-6c1.4-0.3,5.4-2,6.6-1.4c0.6,1.1,1.2,2.3,1.7,3.4
			c-0.6,1.2-1.1,2.3-1.7,3.5c-2,4-3.9,8.1-5.9,12.1c-0.6,1.2,0.7,3,2.1,2.1c7.2-5.4,14.9-10.2,23-14.1c4.3-2.1,8.8-4,13.3-5.6
			c8.1-2.8,8.3,6.9,9.1,12.5c0.2,1.3,2,2.2,2.8,0.8c6.4-11.6,13.2-23.2,21.9-33.2c1.8-2.1,3.7-4.3,6-6c3.7-2.6,11.3-3.7,11.1,3.3
			c-0.1,3.7-3.1,6.5,0.1,9.7c0.7,0.7,2.3,0.5,2.5-0.7c3.1-16.4,9.3-31.9,18.4-45.9c1.1-1.6-1.5-3.1-2.6-1.5
			c-9.3,14.2-15.6,29.9-18.7,46.6c0.8-0.2,1.7-0.4,2.5-0.7c-2-2,1.3-7.2,0.8-9.8c-0.4-2-1.6-3.6-3.3-4.7c-4.2-2.8-9.1-1.4-12.8,1.4
			c-5.9,4.4-10.4,11.1-14.6,17c-5.1,7.3-9.6,15.1-14,23c0.9,0.3,1.9,0.5,2.8,0.8c-0.6-4.4-0.5-12.2-4-15.5c-3.1-2.8-8.2-0.2-11.3,1
			c-12.4,4.7-24,11.2-34.5,19.1c0.7,0.7,1.4,1.4,2.1,2.1c2.6-5.4,6.7-11.4,8.3-17.2c0.7-2.7-0.1-5.2-2.9-6
			c-4.3-1.3-10.1,1.4-14.2,2.4c-6.8,1.6-13.7,3.3-20.5,4.9c0.4,0.9,0.8,1.8,1.2,2.7c7.5-3.8,14.9-7.6,22.4-11.4
			c5.6-2.9,12.9-5.4,16.9-10.5c2.8-3.5,3.1-8.1,0.2-11.6c-4-4.8-10.4-4.7-16.1-4.3c0.1,1,0.3,2,0.4,2.9c6.8-2.2,13.4-4.9,19.7-8.4
			c5.2-2.9,10.9-6.3,14.4-11.3c2.7-3.9,3.6-8.8,1-13.1c-2.1-3.6-5.7-5.5-9.8-4.5c-1.7,0.4-1.2,2.9,0.4,2.9
			c15.7,0.8,31.2-1.3,46.2-6.1C610.9,430.6,610.1,427.7,608.3,428.3L608.3,428.3z"/>
	</g>
</g>
<g>
	<g>
		<path d="M577.7,450c-1.5,2.1-3.1,4.1-4.8,6c-1.3,1.4,0.8,3.5,2.1,2.1c1.9-2.1,3.7-4.3,5.3-6.6C581.3,449.9,578.7,448.4,577.7,450
			L577.7,450z"/>
	</g>
</g>
<g>
	<g>
		<path d="M563,498.1c3.1-2.9,6.7-5,10.8-6.4c1.8-0.6,1-3.5-0.8-2.9c-4.5,1.5-8.6,3.9-12.1,7.1C559.4,497.3,561.6,499.4,563,498.1
			L563,498.1z"/>
	</g>
</g>
<g>
	<g>
		<path d="M596.1,477.4c4.3-3.6,8.4-7.3,12.3-11.2c1.4-1.4-0.7-3.5-2.1-2.1c-4,3.9-8.1,7.6-12.3,11.2
			C592.5,476.5,594.6,478.7,596.1,477.4L596.1,477.4z"/>
	</g>
</g>
<g>
	<g>
		<path d="M610.6,443.4c-5.2,0.4-10,1.8-14.5,4.5c-1.7,1-0.2,3.6,1.5,2.6c4-2.4,8.3-3.8,13-4.1C612.6,446.3,612.6,443.3,610.6,443.4
			L610.6,443.4z"/>
	</g>
</g>
<g>
	<g>
		<path d="M622.3,379.6c5.2-14.1,10.8-28.4,22.3-38.6c-0.9-0.4-1.7-0.7-2.6-1.1c0.4,6.5,0.8,13.1,1.2,19.6c0.1,1.2,1.6,2.1,2.6,1.1
			c5.4-6,11.7-11,18.8-14.8c1.4-0.8,2.9-1.5,4.4-2.1c3.8-1.7,2.2-1.3,2.2,2.4c0,4.3,0,8.6,0,13c0,1.9,3,1.9,3,0c0-3.1,0-6.2,0-9.3
			c0-2.4,0.7-5.9-0.1-8.2c-0.9-2.7-2.7-2.1-5-1.2c-9.8,3.8-18.5,10.4-25.5,18.1c0.9,0.4,1.7,0.7,2.6,1.1c-0.4-6.5-0.8-13.1-1.2-19.6
			c-0.1-1.3-1.6-1.9-2.6-1.1c-11.8,10.6-17.6,25.4-23,40C618.7,380.6,621.6,381.4,622.3,379.6L622.3,379.6z"/>
	</g>
</g>
<g>
	<g>
		<path d="M691.2,398.1c1.7,1.4,2.1,3,1.4,5.1c-0.3,0.8-0.8,1.2-0.8,2.2c0,0.6,0.2,1.1,0.3,1.6c0.5,2.2,0.8,3.9-1.4,5.3
			c-1.6,1-0.1,3.6,1.5,2.6s2.8-2.4,3.2-4.2c0.4-1.7-0.3-2.9-0.4-4.5c-0.1-1.9,1.2-3.5,0.9-5.5c-0.2-1.9-1.2-3.4-2.6-4.7
			C691.9,394.8,689.7,396.9,691.2,398.1L691.2,398.1z"/>
	</g>
</g>
<g>
	<g>
		<path d="M715.8,442.5c2.1,1.9,1.1,5.1,1.3,7.6c0.1,2.9,2,6.1,0.5,8.7c-1,1.7,1.6,3.2,2.6,1.5c0.9-1.5,1.7-3.1,1.5-4.9
			c-0.3-2.2-1.5-3.9-1.6-6.3c-0.1-3.3,0.5-6.3-2.1-8.8C716.5,439.1,714.4,441.2,715.8,442.5L715.8,442.5z"/>
	</g>
</g>
<g>
	<g>
		<path d="M615.3,398.5c-2.3,2.3-3.5,5.4-3.2,8.6c0.1,1.9,3.2,1.9,3,0c-0.2-2.5,0.6-4.7,2.3-6.5
			C618.8,399.3,616.7,397.2,615.3,398.5L615.3,398.5z"/>
	</g>
</g>
<g>
	<g>
		<path d="M616.5,384.1c-4.4-9-8.6-18-8.4-28.3c-0.9,0.3-1.9,0.5-2.8,0.8c4.7,7.6,9.3,15.2,14,22.8c1,1.6,3.6,0.1,2.6-1.5
			c-4.7-7.6-9.3-15.2-14-22.8c-0.8-1.3-2.8-0.7-2.8,0.8c-0.2,10.7,4.2,20.3,8.8,29.8C614.7,387.4,617.3,385.9,616.5,384.1
			L616.5,384.1z"/>
	</g>
</g>
</svg>
